<?xml version="1.0" encoding="UTF-8" standalone="no"?>
<!DOCTYPE svg PUBLIC "-//W3C//DTD SVG 1.1//EN"
 "http://www.w3.org/Graphics/SVG/1.1/DTD/svg11.dtd">
<!-- Generated by graphviz version 14.1.3 (20260303.0454)
 -->
<!-- Pages: 1 -->
<svg width="1445pt" height="210pt"
 viewBox="0.00 0.00 1445.00 210.00" xmlns="http://www.w3.org/2000/svg" xmlns:xlink="http://www.w3.org/1999/xlink">
<g id="graph0" class="graph" transform="scale(1 1) rotate(0) translate(4 206)">
<polygon fill="white" stroke="none" points="-4,4 -4,-206 1441,-206 1441,4 -4,4"/>
<!-- 1665245734400 -->
<g id="node1" class="node">
<title>1665245734400</title>
<polygon fill="none" stroke="black" points="636,-137.5 636,-173.5 819.75,-173.5 819.75,-137.5 636,-137.5"/>
<text xml:space="preserve" text-anchor="middle" x="647.38" y="-150.7" font-family="Times New Roman,serif" font-size="14.00">b</text>
<polyline fill="none" stroke="black" points="658.75,-138 658.75,-173.5"/>
<text xml:space="preserve" text-anchor="middle" x="698.62" y="-150.7" font-family="Times New Roman,serif" font-size="14.00">data 6.8800</text>
<polyline fill="none" stroke="black" points="738.5,-138 738.5,-173.5"/>
<text xml:space="preserve" text-anchor="middle" x="779.12" y="-150.7" font-family="Times New Roman,serif" font-size="14.00">grad 0.5010</text>
</g>
<!-- 1665246534048+ -->
<g id="node15" class="node">
<title>1665246534048+</title>
<ellipse fill="none" stroke="black" cx="883.5" cy="-127.5" rx="27" ry="18"/>
<text xml:space="preserve" text-anchor="middle" x="883.5" y="-122.45" font-family="Times New Roman,serif" font-size="14.00">+</text>
</g>
<!-- 1665245734400&#45;&gt;1665246534048+ -->
<g id="edge7" class="edge">
<title>1665245734400&#45;&gt;1665246534048+</title>
<path fill="none" stroke="black" d="M820.01,-138.89C829.13,-137.23 837.97,-135.62 845.99,-134.15"/>
<polygon fill="black" stroke="black" points="846.39,-137.64 855.6,-132.4 845.13,-130.75 846.39,-137.64"/>
</g>
<!-- 1665246533664 -->
<g id="node2" class="node">
<title>1665246533664</title>
<polygon fill="none" stroke="black" points="326.25,-110.5 326.25,-146.5 507,-146.5 507,-110.5 326.25,-110.5"/>
<text xml:space="preserve" text-anchor="middle" x="336.12" y="-123.7" font-family="Times New Roman,serif" font-size="14.00"> </text>
<polyline fill="none" stroke="black" points="346,-111 346,-146.5"/>
<text xml:space="preserve" text-anchor="middle" x="385.88" y="-123.7" font-family="Times New Roman,serif" font-size="14.00">data 0.0000</text>
<polyline fill="none" stroke="black" points="425.75,-111 425.75,-146.5"/>
<text xml:space="preserve" text-anchor="middle" x="466.38" y="-123.7" font-family="Times New Roman,serif" font-size="14.00">grad 0.5010</text>
</g>
<!-- 1665246533856+ -->
<g id="node9" class="node">
<title>1665246533856+</title>
<ellipse fill="none" stroke="black" cx="572.25" cy="-100.5" rx="27" ry="18"/>
<text xml:space="preserve" text-anchor="middle" x="572.25" y="-95.45" font-family="Times New Roman,serif" font-size="14.00">+</text>
</g>
<!-- 1665246533664&#45;&gt;1665246533856+ -->
<g id="edge12" class="edge">
<title>1665246533664&#45;&gt;1665246533856+</title>
<path fill="none" stroke="black" d="M507.43,-112.13C516.98,-110.39 526.26,-108.7 534.64,-107.17"/>
<polygon fill="black" stroke="black" points="535.14,-110.64 544.35,-105.4 533.89,-103.75 535.14,-110.64"/>
</g>
<!-- 1665246533664* -->
<g id="node3" class="node">
<title>1665246533664*</title>
<ellipse fill="none" stroke="black" cx="261" cy="-128.5" rx="27" ry="18"/>
<text xml:space="preserve" text-anchor="middle" x="261" y="-123.45" font-family="Times New Roman,serif" font-size="14.00">*</text>
</g>
<!-- 1665246533664*&#45;&gt;1665246533664 -->
<g id="edge1" class="edge">
<title>1665246533664*&#45;&gt;1665246533664</title>
<path fill="none" stroke="black" d="M288.41,-128.5C296.12,-128.5 305.04,-128.5 314.51,-128.5"/>
<polygon fill="black" stroke="black" points="314.32,-132 324.32,-128.5 314.32,-125 314.32,-132"/>
</g>
<!-- 1665246534192 -->
<g id="node4" class="node">
<title>1665246534192</title>
<polygon fill="none" stroke="black" points="1253.25,-109.5 1253.25,-145.5 1437,-145.5 1437,-109.5 1253.25,-109.5"/>
<text xml:space="preserve" text-anchor="middle" x="1264.62" y="-122.7" font-family="Times New Roman,serif" font-size="14.00">y</text>
<polyline fill="none" stroke="black" points="1276,-110 1276,-145.5"/>
<text xml:space="preserve" text-anchor="middle" x="1315.88" y="-122.7" font-family="Times New Roman,serif" font-size="14.00">data 0.7064</text>
<polyline fill="none" stroke="black" points="1355.75,-110 1355.75,-145.5"/>
<text xml:space="preserve" text-anchor="middle" x="1396.38" y="-122.7" font-family="Times New Roman,serif" font-size="14.00">grad 1.0000</text>
</g>
<!-- 1665246534192tanh -->
<g id="node5" class="node">
<title>1665246534192tanh</title>
<ellipse fill="none" stroke="black" cx="1190.25" cy="-127.5" rx="27" ry="18"/>
<text xml:space="preserve" text-anchor="middle" x="1190.25" y="-122.45" font-family="Times New Roman,serif" font-size="14.00">tanh</text>
</g>
<!-- 1665246534192tanh&#45;&gt;1665246534192 -->
<g id="edge2" class="edge">
<title>1665246534192tanh&#45;&gt;1665246534192</title>
<path fill="none" stroke="black" d="M1217.53,-127.5C1224.67,-127.5 1232.86,-127.5 1241.57,-127.5"/>
<polygon fill="black" stroke="black" points="1241.31,-131 1251.31,-127.5 1241.31,-124 1241.31,-131"/>
</g>
<!-- 1665246180944 -->
<g id="node6" class="node">
<title>1665246180944</title>
<polygon fill="none" stroke="black" points="1.5,-55.5 1.5,-91.5 196.5,-91.5 196.5,-55.5 1.5,-55.5"/>
<text xml:space="preserve" text-anchor="middle" x="16.25" y="-68.7" font-family="Times New Roman,serif" font-size="14.00">x1</text>
<polyline fill="none" stroke="black" points="31,-56 31,-91.5"/>
<text xml:space="preserve" text-anchor="middle" x="70.88" y="-68.7" font-family="Times New Roman,serif" font-size="14.00">data 2.0000</text>
<polyline fill="none" stroke="black" points="110.75,-56 110.75,-91.5"/>
<text xml:space="preserve" text-anchor="middle" x="153.62" y="-68.7" font-family="Times New Roman,serif" font-size="14.00">grad &#45;1.5029</text>
</g>
<!-- 1665246533424* -->
<g id="node12" class="node">
<title>1665246533424*</title>
<ellipse fill="none" stroke="black" cx="261" cy="-73.5" rx="27" ry="18"/>
<text xml:space="preserve" text-anchor="middle" x="261" y="-68.45" font-family="Times New Roman,serif" font-size="14.00">*</text>
</g>
<!-- 1665246180944&#45;&gt;1665246533424* -->
<g id="edge13" class="edge">
<title>1665246180944&#45;&gt;1665246533424*</title>
<path fill="none" stroke="black" d="M196.76,-73.5C205.77,-73.5 214.47,-73.5 222.4,-73.5"/>
<polygon fill="black" stroke="black" points="222.25,-77 232.25,-73.5 222.25,-70 222.25,-77"/>
</g>
<!-- 1665245728400 -->
<g id="node7" class="node">
<title>1665245728400</title>
<polygon fill="none" stroke="black" points="0,-0.5 0,-36.5 198,-36.5 198,-0.5 0,-0.5"/>
<text xml:space="preserve" text-anchor="middle" x="16.25" y="-13.7" font-family="Times New Roman,serif" font-size="14.00">w1</text>
<polyline fill="none" stroke="black" points="32.5,-1 32.5,-36.5"/>
<text xml:space="preserve" text-anchor="middle" x="74.62" y="-13.7" font-family="Times New Roman,serif" font-size="14.00">data &#45;3.0000</text>
<polyline fill="none" stroke="black" points="116.75,-1 116.75,-36.5"/>
<text xml:space="preserve" text-anchor="middle" x="157.38" y="-13.7" font-family="Times New Roman,serif" font-size="14.00">grad 1.0019</text>
</g>
<!-- 1665245728400&#45;&gt;1665246533424* -->
<g id="edge8" class="edge">
<title>1665245728400&#45;&gt;1665246533424*</title>
<path fill="none" stroke="black" d="M168.91,-36.94C178.74,-39.93 188.67,-43.15 198,-46.5 207.96,-50.07 218.58,-54.47 228.18,-58.68"/>
<polygon fill="black" stroke="black" points="226.54,-61.78 237.1,-62.67 229.4,-55.39 226.54,-61.78"/>
</g>
<!-- 1665246533856 -->
<g id="node8" class="node">
<title>1665246533856</title>
<polygon fill="none" stroke="black" points="635.25,-82.5 635.25,-118.5 820.5,-118.5 820.5,-82.5 635.25,-82.5"/>
<text xml:space="preserve" text-anchor="middle" x="645.12" y="-95.7" font-family="Times New Roman,serif" font-size="14.00"> </text>
<polyline fill="none" stroke="black" points="655,-83 655,-118.5"/>
<text xml:space="preserve" text-anchor="middle" x="697.12" y="-95.7" font-family="Times New Roman,serif" font-size="14.00">data &#45;6.0000</text>
<polyline fill="none" stroke="black" points="739.25,-83 739.25,-118.5"/>
<text xml:space="preserve" text-anchor="middle" x="779.88" y="-95.7" font-family="Times New Roman,serif" font-size="14.00">grad 0.5010</text>
</g>
<!-- 1665246533856&#45;&gt;1665246534048+ -->
<g id="edge6" class="edge">
<title>1665246533856&#45;&gt;1665246534048+</title>
<path fill="none" stroke="black" d="M820.9,-116.67C829.64,-118.21 838.11,-119.7 845.83,-121.05"/>
<polygon fill="black" stroke="black" points="844.95,-124.45 855.41,-122.74 846.16,-117.56 844.95,-124.45"/>
</g>
<!-- 1665246533856+&#45;&gt;1665246533856 -->
<g id="edge3" class="edge">
<title>1665246533856+&#45;&gt;1665246533856</title>
<path fill="none" stroke="black" d="M599.66,-100.5C606.7,-100.5 614.75,-100.5 623.3,-100.5"/>
<polygon fill="black" stroke="black" points="623.29,-104 633.29,-100.5 623.29,-97 623.29,-104"/>
</g>
<!-- 1665245734640 -->
<g id="node10" class="node">
<title>1665245734640</title>
<polygon fill="none" stroke="black" points="2.25,-165.5 2.25,-201.5 195.75,-201.5 195.75,-165.5 2.25,-165.5"/>
<text xml:space="preserve" text-anchor="middle" x="18.5" y="-178.7" font-family="Times New Roman,serif" font-size="14.00">w2</text>
<polyline fill="none" stroke="black" points="34.75,-166 34.75,-201.5"/>
<text xml:space="preserve" text-anchor="middle" x="74.62" y="-178.7" font-family="Times New Roman,serif" font-size="14.00">data 1.0000</text>
<polyline fill="none" stroke="black" points="114.5,-166 114.5,-201.5"/>
<text xml:space="preserve" text-anchor="middle" x="155.12" y="-178.7" font-family="Times New Roman,serif" font-size="14.00">grad 0.0000</text>
</g>
<!-- 1665245734640&#45;&gt;1665246533664* -->
<g id="edge14" class="edge">
<title>1665245734640&#45;&gt;1665246533664*</title>
<path fill="none" stroke="black" d="M172.12,-165.01C180.9,-162.35 189.7,-159.5 198,-156.5 208.09,-152.86 218.82,-148.27 228.47,-143.88"/>
<polygon fill="black" stroke="black" points="229.86,-147.09 237.45,-139.69 226.9,-140.75 229.86,-147.09"/>
</g>
<!-- 1665246533424 -->
<g id="node11" class="node">
<title>1665246533424</title>
<polygon fill="none" stroke="black" points="324,-55.5 324,-91.5 509.25,-91.5 509.25,-55.5 324,-55.5"/>
<text xml:space="preserve" text-anchor="middle" x="333.88" y="-68.7" font-family="Times New Roman,serif" font-size="14.00"> </text>
<polyline fill="none" stroke="black" points="343.75,-56 343.75,-91.5"/>
<text xml:space="preserve" text-anchor="middle" x="385.88" y="-68.7" font-family="Times New Roman,serif" font-size="14.00">data &#45;6.0000</text>
<polyline fill="none" stroke="black" points="428,-56 428,-91.5"/>
<text xml:space="preserve" text-anchor="middle" x="468.62" y="-68.7" font-family="Times New Roman,serif" font-size="14.00">grad 0.5010</text>
</g>
<!-- 1665246533424&#45;&gt;1665246533856+ -->
<g id="edge10" class="edge">
<title>1665246533424&#45;&gt;1665246533856+</title>
<path fill="none" stroke="black" d="M509.65,-89.67C518.39,-91.21 526.86,-92.7 534.58,-94.05"/>
<polygon fill="black" stroke="black" points="533.7,-97.45 544.16,-95.74 534.91,-90.56 533.7,-97.45"/>
</g>
<!-- 1665246533424*&#45;&gt;1665246533424 -->
<g id="edge4" class="edge">
<title>1665246533424*&#45;&gt;1665246533424</title>
<path fill="none" stroke="black" d="M288.41,-73.5C295.45,-73.5 303.5,-73.5 312.05,-73.5"/>
<polygon fill="black" stroke="black" points="312.04,-77 322.04,-73.5 312.04,-70 312.04,-77"/>
</g>
<!-- 1665245731664 -->
<g id="node13" class="node">
<title>1665245731664</title>
<polygon fill="none" stroke="black" points="3.75,-110.5 3.75,-146.5 194.25,-146.5 194.25,-110.5 3.75,-110.5"/>
<text xml:space="preserve" text-anchor="middle" x="18.5" y="-123.7" font-family="Times New Roman,serif" font-size="14.00">x2</text>
<polyline fill="none" stroke="black" points="33.25,-111 33.25,-146.5"/>
<text xml:space="preserve" text-anchor="middle" x="73.12" y="-123.7" font-family="Times New Roman,serif" font-size="14.00">data 0.0000</text>
<polyline fill="none" stroke="black" points="113,-111 113,-146.5"/>
<text xml:space="preserve" text-anchor="middle" x="153.62" y="-123.7" font-family="Times New Roman,serif" font-size="14.00">grad 0.5010</text>
</g>
<!-- 1665245731664&#45;&gt;1665246533664* -->
<g id="edge11" class="edge">
<title>1665245731664&#45;&gt;1665246533664*</title>
<path fill="none" stroke="black" d="M194.46,-128.5C204.21,-128.5 213.66,-128.5 222.21,-128.5"/>
<polygon fill="black" stroke="black" points="222.12,-132 232.12,-128.5 222.12,-125 222.12,-132"/>
</g>
<!-- 1665246534048 -->
<g id="node14" class="node">
<title>1665246534048</title>
<polygon fill="none" stroke="black" points="946.5,-109.5 946.5,-145.5 1127.25,-145.5 1127.25,-109.5 946.5,-109.5"/>
<text xml:space="preserve" text-anchor="middle" x="956.38" y="-122.7" font-family="Times New Roman,serif" font-size="14.00"> </text>
<polyline fill="none" stroke="black" points="966.25,-110 966.25,-145.5"/>
<text xml:space="preserve" text-anchor="middle" x="1006.12" y="-122.7" font-family="Times New Roman,serif" font-size="14.00">data 0.8800</text>
<polyline fill="none" stroke="black" points="1046,-110 1046,-145.5"/>
<text xml:space="preserve" text-anchor="middle" x="1086.62" y="-122.7" font-family="Times New Roman,serif" font-size="14.00">grad 0.5010</text>
</g>
<!-- 1665246534048&#45;&gt;1665246534192tanh -->
<g id="edge9" class="edge">
<title>1665246534048&#45;&gt;1665246534192tanh</title>
<path fill="none" stroke="black" d="M1127.68,-127.5C1136.02,-127.5 1144.12,-127.5 1151.56,-127.5"/>
<polygon fill="black" stroke="black" points="1151.5,-131 1161.5,-127.5 1151.5,-124 1151.5,-131"/>
</g>
<!-- 1665246534048+&#45;&gt;1665246534048 -->
<g id="edge5" class="edge">
<title>1665246534048+&#45;&gt;1665246534048</title>
<path fill="none" stroke="black" d="M910.87,-127.5C918.01,-127.5 926.2,-127.5 934.89,-127.5"/>
<polygon fill="black" stroke="black" points="934.61,-131 944.61,-127.5 934.61,-124 934.61,-131"/>
</g>
</g>
</svg>
